<svg xmlns="http://www.w3.org/2000/svg" xmlns:xlink="http://www.w3.org/1999/xlink" width="450.924316" height="180.800171" viewBox="0 0 450.924 180.8">
	<path d="M0 40L426.881 40M0 77.3668L426.881 77.3668M0 0L426.881 0L426.881 156.757L0 156.757L0 0Z" fill="#FFFFFF" fill-opacity="1.000000" stroke-opacity="0" transform="matrix(1 0 0 1 12.0215 12.0215)"/>
	<path d="M0 40L426.881 40M0 77.3668L426.881 77.3668M0 0L426.881 0L426.881 156.757L0 156.757L0 0Z" stroke="#000000" stroke-opacity="1.000000" stroke-width="2" stroke-dasharray="0 0" fill-opacity="0" transform="matrix(1 0 0 1 12.0215 12.0215)"/>
	<path d="M151.407 0L244.983 0L244.983 21L151.407 21L151.407 0Z" stroke-opacity="0" fill-opacity="0.000000" fill="#000000" transform="matrix(1 0 0 1 12.0215 12.0215)"/>
	<path d="M168.579 25L170.062 25L172.766 17.3984L171.504 17.3984L170.062 21.7256C169.84 22.4673 169.587 23.25 169.361 23.9644L169.307 23.9644C169.067 23.25 168.832 22.4673 168.592 21.7256L167.164 17.3984L165.834 17.3984L168.579 25ZM176.447 25.1811C177.496 25.1811 178.252 24.6377 178.966 23.8105L179.01 23.8105L179.106 25L180.172 25L180.172 17.3984L178.898 17.3984L178.898 22.7886C178.169 23.6978 177.623 24.0771 176.84 24.0771C175.832 24.0771 175.411 23.4756 175.411 22.0605L175.411 17.3984L174.136 17.3984L174.136 22.2144C174.136 24.1455 174.851 25.1811 176.447 25.1811ZM185.799 25.1811C186.835 25.1811 187.648 24.8325 188.318 24.3984L187.857 23.5576C187.296 23.937 186.695 24.1592 185.953 24.1592C184.511 24.1592 183.516 23.1235 183.434 21.5L188.558 21.5C188.585 21.3188 188.612 21.0522 188.612 20.772C188.612 18.6016 187.522 17.2036 185.587 17.2036C183.824 17.2036 182.159 18.7417 182.159 21.2061C182.159 23.7114 183.783 25.1811 185.799 25.1811ZM183.42 20.5908C183.574 19.0903 184.524 18.2256 185.604 18.2256C186.794 18.2256 187.491 19.0493 187.491 20.5908L183.42 20.5908ZM189.997 21.5684L193.583 21.5684L193.583 20.5908L189.997 20.5908L189.997 21.5684ZM197.488 25.1811C197.949 25.1811 198.455 25.041 198.889 24.9009L198.636 23.9507C198.383 24.0464 198.035 24.1455 197.768 24.1455C196.886 24.1455 196.592 23.6123 196.592 22.6758L196.592 18.4341L198.65 18.4341L198.65 17.3984L196.592 17.3984L196.592 15.269L195.529 15.269L195.376 17.3984L194.186 17.4668L194.186 18.4341L195.318 18.4341L195.318 22.6484C195.318 24.1728 195.864 25.1811 197.488 25.1811ZM203.229 25.1811C204.265 25.1811 205.078 24.8325 205.748 24.3984L205.287 23.5576C204.726 23.937 204.125 24.1592 203.383 24.1592C201.941 24.1592 200.946 23.1235 200.864 21.5L205.988 21.5C206.015 21.3188 206.042 21.0522 206.042 20.772C206.042 18.6016 204.952 17.2036 203.017 17.2036C201.254 17.2036 199.589 18.7417 199.589 21.2061C199.589 23.7114 201.213 25.1811 203.229 25.1811ZM200.85 20.5908C201.004 19.0903 201.954 18.2256 203.034 18.2256C204.224 18.2256 204.921 19.0493 204.921 20.5908L200.85 20.5908ZM209.263 25.1811C209.598 25.1811 209.823 25.1401 210.004 25.0684L209.823 24.0908C209.683 24.1182 209.628 24.1182 209.556 24.1182C209.362 24.1182 209.194 23.9644 209.194 23.5713L209.194 13.8574L207.919 13.8574L207.919 23.4893C207.919 24.5659 208.312 25.1811 209.263 25.1811ZM214.975 25.1811C216.011 25.1811 216.824 24.8325 217.494 24.3984L217.033 23.5576C216.472 23.937 215.871 24.1592 215.129 24.1592C213.687 24.1592 212.692 23.1235 212.61 21.5L217.733 21.5C217.761 21.3188 217.788 21.0522 217.788 20.772C217.788 18.6016 216.698 17.2036 214.763 17.2036C213 17.2036 211.335 18.7417 211.335 21.2061C211.335 23.7114 212.959 25.1811 214.975 25.1811ZM212.596 20.5908C212.75 19.0903 213.7 18.2256 214.78 18.2256C215.97 18.2256 216.667 19.0493 216.667 20.5908L212.596 20.5908ZM219.665 28.2061L220.94 28.2061L220.94 25.6289L220.909 24.2993C221.596 24.8599 222.324 25.1811 223.011 25.1811C224.761 25.1811 226.313 23.6841 226.313 21.0796C226.313 18.7417 225.25 17.2036 223.292 17.2036C222.41 17.2036 221.555 17.7061 220.868 18.2666L220.827 18.2666L220.715 17.3984L219.665 17.3984L219.665 28.2061ZM222.8 24.1182C222.297 24.1182 221.624 23.9097 220.94 23.3184L220.94 19.3296C221.682 18.6426 222.338 18.2803 222.984 18.2803C224.423 18.2803 224.984 19.415 224.984 21.0933C224.984 22.9834 224.061 24.1182 222.8 24.1182ZM231.298 25.1811C233.161 25.1811 234.826 23.7251 234.826 21.2061C234.826 18.6733 233.161 17.2036 231.298 17.2036C229.436 17.2036 227.771 18.6733 227.771 21.2061C227.771 23.7251 229.436 25.1811 231.298 25.1811ZM231.298 24.1182C229.982 24.1182 229.101 22.9561 229.101 21.2061C229.101 19.4561 229.982 18.2666 231.298 18.2666C232.614 18.2666 233.51 19.4561 233.51 21.2061C233.51 22.9561 232.614 24.1182 231.298 24.1182ZM236.829 25L238.104 25L238.104 20.1123C238.607 18.8135 239.389 18.3623 240.022 18.3623C240.329 18.3623 240.51 18.3931 240.763 18.4888L240.999 17.3711C240.763 17.2446 240.524 17.2036 240.189 17.2036C239.335 17.2036 238.565 17.8188 238.032 18.7827L237.991 18.7827L237.878 17.3984L236.829 17.3984L236.829 25ZM244.654 25.1811C245.115 25.1811 245.621 25.041 246.055 24.9009L245.802 23.9507C245.549 24.0464 245.201 24.1455 244.934 24.1455C244.052 24.1455 243.758 23.6123 243.758 22.6758L243.758 18.4341L245.816 18.4341L245.816 17.3984L243.758 17.3984L243.758 15.269L242.695 15.269L242.541 17.3984L241.352 17.4668L241.352 18.4341L242.483 18.4341L242.483 22.6484C242.483 24.1728 243.03 25.1811 244.654 25.1811ZM250.395 25.1811C251.431 25.1811 252.244 24.8325 252.914 24.3984L252.453 23.5576C251.892 23.937 251.291 24.1592 250.549 24.1592C249.106 24.1592 248.112 23.1235 248.03 21.5L253.153 21.5C253.181 21.3188 253.208 21.0522 253.208 20.772C253.208 18.6016 252.118 17.2036 250.183 17.2036C248.419 17.2036 246.755 18.7417 246.755 21.2061C246.755 23.7114 248.378 25.1811 250.395 25.1811ZM248.016 20.5908C248.17 19.0903 249.12 18.2256 250.2 18.2256C251.39 18.2256 252.087 19.0493 252.087 20.5908L248.016 20.5908ZM255.085 25L256.36 25L256.36 20.1123C256.862 18.8135 257.645 18.3623 258.277 18.3623C258.585 18.3623 258.766 18.3931 259.019 18.4888L259.255 17.3711C259.019 17.2446 258.78 17.2036 258.445 17.2036C257.59 17.2036 256.821 17.8188 256.288 18.7827L256.247 18.7827L256.134 17.3984L255.085 17.3984L255.085 25Z" fill="#19191A" fill-opacity="1.000000" transform="matrix(1 0 0 1 12.0215 12.0215)"/>
	<path d="M70.5924 0L325.797 0L325.797 21L70.5924 21L70.5924 0Z" stroke-opacity="0" fill-opacity="0.000000" fill="#000000" transform="matrix(1 0 0 1 12.0215 12.0215)"/>
	<path d="M88.2117 62.5283L89.2337 62.5283L89.2337 59.4624L92.0774 59.4624L92.0774 58.5088L89.2337 58.5088L89.2337 55.4565L88.2117 55.4565L88.2117 58.5088L85.3714 58.5088L85.3714 59.4624L88.2117 59.4624L88.2117 62.5283ZM99.2852 64.1519L100.587 64.1519L100.587 54.9814L103.698 54.9814L103.698 53.8911L96.1782 53.8911L96.1782 54.9814L99.2852 54.9814L99.2852 64.1519ZM107.449 64.333C108.484 64.333 109.298 63.9844 109.968 63.5503L109.506 62.7095C108.946 63.0889 108.344 63.311 107.602 63.311C106.16 63.311 105.165 62.2754 105.083 60.6519L110.207 60.6519C110.234 60.4707 110.262 60.2041 110.262 59.9238C110.262 57.7534 109.171 56.3555 107.237 56.3555C105.473 56.3555 103.808 57.8936 103.808 60.3579C103.808 62.8633 105.432 64.333 107.449 64.333ZM105.07 59.7427C105.224 58.2422 106.174 57.3774 107.254 57.3774C108.443 57.3774 109.141 58.2012 109.141 59.7427L105.07 59.7427ZM113.482 64.333C113.817 64.333 114.042 64.292 114.224 64.2202L114.042 63.2427C113.902 63.27 113.848 63.27 113.776 63.27C113.581 63.27 113.414 63.1162 113.414 62.7231L113.414 53.0093L112.139 53.0093L112.139 62.6411C112.139 63.7178 112.532 64.333 113.482 64.333ZM119.195 64.333C120.23 64.333 121.044 63.9844 121.714 63.5503L121.252 62.7095C120.692 63.0889 120.09 63.311 119.348 63.311C117.906 63.311 116.911 62.2754 116.829 60.6519L121.953 60.6519C121.98 60.4707 122.008 60.2041 122.008 59.9238C122.008 57.7534 120.917 56.3555 118.983 56.3555C117.219 56.3555 115.554 57.8936 115.554 60.3579C115.554 62.8633 117.178 64.333 119.195 64.333ZM116.816 59.7427C116.969 58.2422 117.92 57.3774 119 57.3774C120.189 57.3774 120.886 58.2012 120.886 59.7427L116.816 59.7427ZM123.885 67.3579L125.16 67.3579L125.16 64.7808L125.129 63.4512C125.816 64.0117 126.544 64.333 127.231 64.333C128.981 64.333 130.533 62.8359 130.533 60.2314C130.533 57.8936 129.47 56.3555 127.511 56.3555C126.629 56.3555 125.775 56.8579 125.088 57.4185L125.047 57.4185L124.934 56.5503L123.885 56.5503L123.885 67.3579ZM127.019 63.27C126.516 63.27 125.843 63.0615 125.16 62.4702L125.16 58.4814C125.901 57.7944 126.557 57.4321 127.203 57.4321C128.642 57.4321 129.203 58.5669 129.203 60.2451C129.203 62.1353 128.28 63.27 127.019 63.27ZM135.518 64.333C137.38 64.333 139.045 62.877 139.045 60.3579C139.045 57.8252 137.38 56.3555 135.518 56.3555C133.655 56.3555 131.99 57.8252 131.99 60.3579C131.99 62.877 133.655 64.333 135.518 64.333ZM135.518 63.27C134.202 63.27 133.32 62.1079 133.32 60.3579C133.32 58.6079 134.202 57.4185 135.518 57.4185C136.834 57.4185 137.729 58.6079 137.729 60.3579C137.729 62.1079 136.834 63.27 135.518 63.27ZM141.049 64.1519L142.323 64.1519L142.323 59.2642C142.826 57.9653 143.609 57.5142 144.241 57.5142C144.549 57.5142 144.73 57.5449 144.983 57.6406L145.218 56.5229C144.983 56.3965 144.743 56.3555 144.408 56.3555C143.554 56.3555 142.785 56.9707 142.252 57.9346L142.211 57.9346L142.098 56.5503L141.049 56.5503L141.049 64.1519ZM148.873 64.333C149.335 64.333 149.84 64.1929 150.274 64.0527L150.022 63.1025C149.769 63.1982 149.42 63.2974 149.153 63.2974C148.272 63.2974 147.978 62.7642 147.978 61.8276L147.978 57.5859L150.035 57.5859L150.035 56.5503L147.978 56.5503L147.978 54.4209L146.915 54.4209L146.761 56.5503L145.571 56.6187L145.571 57.5859L146.703 57.5859L146.703 61.8003C146.703 63.3247 147.25 64.333 148.873 64.333ZM154.614 64.333C155.65 64.333 156.464 63.9844 157.133 63.5503L156.672 62.7095C156.111 63.0889 155.51 63.311 154.768 63.311C153.326 63.311 152.331 62.2754 152.249 60.6519L157.373 60.6519C157.4 60.4707 157.427 60.2041 157.427 59.9238C157.427 57.7534 156.337 56.3555 154.402 56.3555C152.639 56.3555 150.974 57.8936 150.974 60.3579C150.974 62.8633 152.598 64.333 154.614 64.333ZM152.236 59.7427C152.389 58.2422 153.34 57.3774 154.42 57.3774C155.609 57.3774 156.306 58.2012 156.306 59.7427L152.236 59.7427ZM161.895 64.333C162.804 64.333 163.601 63.8442 164.202 63.2563L164.233 63.2563L164.356 64.1519L165.395 64.1519L165.395 53.0093L164.12 53.0093L164.12 55.9351L164.189 57.251C163.519 56.6904 162.945 56.3555 162.049 56.3555C160.313 56.3555 158.758 57.8936 158.758 60.3579C158.758 62.8906 159.991 64.333 161.895 64.333ZM162.176 63.27C160.829 63.27 160.074 62.1763 160.074 60.3442C160.074 58.6079 161.041 57.4321 162.271 57.4321C162.904 57.4321 163.474 57.6543 164.12 58.2285L164.12 62.2207C163.491 62.9214 162.873 63.27 162.176 63.27ZM171.973 64.333C173.303 64.333 174.311 63.8032 175.125 62.8633L174.41 62.0532C173.751 62.7642 173.009 63.1982 172.031 63.1982C170.069 63.1982 168.839 61.5747 168.839 58.9873C168.839 56.4238 170.127 54.8276 172.072 54.8276C172.954 54.8276 173.641 55.2344 174.171 55.8086L174.872 54.9678C174.284 54.3115 173.303 53.6929 172.059 53.6929C169.454 53.6929 167.509 55.7095 167.509 59.0283C167.509 62.3608 169.427 64.333 171.973 64.333ZM179.87 64.333C181.732 64.333 183.397 62.877 183.397 60.3579C183.397 57.8252 181.732 56.3555 179.87 56.3555C178.007 56.3555 176.342 57.8252 176.342 60.3579C176.342 62.877 178.007 64.333 179.87 64.333ZM179.87 63.27C178.554 63.27 177.672 62.1079 177.672 60.3579C177.672 58.6079 178.554 57.4185 179.87 57.4185C181.185 57.4185 182.081 58.6079 182.081 60.3579C182.081 62.1079 181.185 63.27 179.87 63.27ZM185.4 64.1519L186.675 64.1519L186.675 58.6353C187.373 57.8525 188.019 57.4731 188.593 57.4731C189.557 57.4731 190.004 58.0747 190.004 59.5034L190.004 64.1519L191.279 64.1519L191.279 58.6353C191.994 57.8525 192.609 57.4731 193.197 57.4731C194.164 57.4731 194.612 58.0747 194.612 59.5034L194.612 64.1519L195.887 64.1519L195.887 59.3359C195.887 57.3911 195.145 56.3555 193.576 56.3555C192.653 56.3555 191.853 56.957 191.071 57.8115C190.763 56.9126 190.131 56.3555 188.969 56.3555C188.06 56.3555 187.263 56.9263 186.603 57.6543L186.562 57.6543L186.45 56.5503L185.4 56.5503L185.4 64.1519ZM198.364 67.3579L199.639 67.3579L199.639 64.7808L199.608 63.4512C200.295 64.0117 201.023 64.333 201.71 64.333C203.46 64.333 205.012 62.8359 205.012 60.2314C205.012 57.8936 203.949 56.3555 201.991 56.3555C201.109 56.3555 200.254 56.8579 199.567 57.4185L199.526 57.4185L199.414 56.5503L198.364 56.5503L198.364 67.3579ZM201.499 63.27C200.996 63.27 200.323 63.0615 199.639 62.4702L199.639 58.4814C200.381 57.7944 201.037 57.4321 201.683 57.4321C203.122 57.4321 203.683 58.5669 203.683 60.2451C203.683 62.1353 202.76 63.27 201.499 63.27ZM209.997 64.333C211.86 64.333 213.525 62.877 213.525 60.3579C213.525 57.8252 211.86 56.3555 209.997 56.3555C208.135 56.3555 206.47 57.8252 206.47 60.3579C206.47 62.877 208.135 64.333 209.997 64.333ZM209.997 63.27C208.681 63.27 207.8 62.1079 207.8 60.3579C207.8 58.6079 208.681 57.4185 209.997 57.4185C211.313 57.4185 212.209 58.6079 212.209 60.3579C212.209 62.1079 211.313 63.27 209.997 63.27ZM215.528 64.1519L216.803 64.1519L216.803 58.6353C217.572 57.8662 218.102 57.4731 218.888 57.4731C219.896 57.4731 220.33 58.0747 220.33 59.5034L220.33 64.1519L221.602 64.1519L221.602 59.3359C221.602 57.3911 220.877 56.3555 219.281 56.3555C218.242 56.3555 217.459 56.9263 216.731 57.6406L216.69 57.6406L216.578 56.5503L215.528 56.5503L215.528 64.1519ZM227.148 64.333C228.184 64.333 228.997 63.9844 229.667 63.5503L229.206 62.7095C228.645 63.0889 228.044 63.311 227.302 63.311C225.86 63.311 224.865 62.2754 224.783 60.6519L229.906 60.6519C229.934 60.4707 229.961 60.2041 229.961 59.9238C229.961 57.7534 228.871 56.3555 226.936 56.3555C225.173 56.3555 223.508 57.8936 223.508 60.3579C223.508 62.8633 225.132 64.333 227.148 64.333ZM224.769 59.7427C224.923 58.2422 225.873 57.3774 226.953 57.3774C228.143 57.3774 228.84 58.2012 228.84 59.7427L224.769 59.7427ZM231.838 64.1519L233.113 64.1519L233.113 58.6353C233.882 57.8662 234.412 57.4731 235.198 57.4731C236.206 57.4731 236.64 58.0747 236.64 59.5034L236.64 64.1519L237.912 64.1519L237.912 59.3359C237.912 57.3911 237.187 56.3555 235.591 56.3555C234.552 56.3555 233.769 56.9263 233.041 57.6406L233 57.6406L232.887 56.5503L231.838 56.5503L231.838 64.1519ZM242.785 64.333C243.246 64.333 243.752 64.1929 244.186 64.0527L243.933 63.1025C243.68 63.1982 243.332 63.2974 243.065 63.2974C242.183 63.2974 241.889 62.7642 241.889 61.8276L241.889 57.5859L243.947 57.5859L243.947 56.5503L241.889 56.5503L241.889 54.4209L240.826 54.4209L240.672 56.5503L239.483 56.6187L239.483 57.5859L240.614 57.5859L240.614 61.8003C240.614 63.3247 241.161 64.333 242.785 64.333ZM249.659 64.333C250.988 64.333 251.997 63.8032 252.81 62.8633L252.096 62.0532C251.436 62.7642 250.695 63.1982 249.717 63.1982C247.755 63.1982 246.525 61.5747 246.525 58.9873C246.525 56.4238 247.813 54.8276 249.758 54.8276C250.64 54.8276 251.327 55.2344 251.857 55.8086L252.557 54.9678C251.969 54.3115 250.988 53.6929 249.744 53.6929C247.14 53.6929 245.195 55.7095 245.195 59.0283C245.195 62.3608 247.112 64.333 249.659 64.333ZM257.555 64.333C259.418 64.333 261.083 62.877 261.083 60.3579C261.083 57.8252 259.418 56.3555 257.555 56.3555C255.692 56.3555 254.028 57.8252 254.028 60.3579C254.028 62.877 255.692 64.333 257.555 64.333ZM257.555 63.27C256.239 63.27 255.357 62.1079 255.357 60.3579C255.357 58.6079 256.239 57.4185 257.555 57.4185C258.871 57.4185 259.767 58.6079 259.767 60.3579C259.767 62.1079 258.871 63.27 257.555 63.27ZM263.086 64.1519L264.361 64.1519L264.361 58.6353C265.13 57.8662 265.66 57.4731 266.446 57.4731C267.454 57.4731 267.888 58.0747 267.888 59.5034L267.888 64.1519L269.16 64.1519L269.16 59.3359C269.16 57.3911 268.435 56.3555 266.839 56.3555C265.8 56.3555 265.017 56.9263 264.289 57.6406L264.248 57.6406L264.135 56.5503L263.086 56.5503L263.086 64.1519ZM274.033 64.333C274.494 64.333 275 64.1929 275.434 64.0527L275.181 63.1025C274.928 63.1982 274.579 63.2974 274.313 63.2974C273.431 63.2974 273.137 62.7642 273.137 61.8276L273.137 57.5859L275.195 57.5859L275.195 56.5503L273.137 56.5503L273.137 54.4209L272.074 54.4209L271.92 56.5503L270.731 56.6187L270.731 57.5859L271.862 57.5859L271.862 61.8003C271.862 63.3247 272.409 64.333 274.033 64.333ZM278.332 64.333C279.269 64.333 280.123 63.8442 280.851 63.2427L280.892 63.2427L281.005 64.1519L282.054 64.1519L282.054 59.4761C282.054 57.5996 281.271 56.3555 279.422 56.3555C278.206 56.3555 277.129 56.8989 276.428 57.3467L276.931 58.2285C277.532 57.8252 278.332 57.4185 279.214 57.4185C280.458 57.4185 280.783 58.355 280.783 59.3359C277.546 59.6982 276.107 60.5254 276.107 62.1763C276.107 63.5503 277.057 64.333 278.332 64.333ZM278.694 63.311C277.939 63.311 277.351 62.9624 277.351 62.0942C277.351 61.1133 278.219 60.4844 280.783 60.1768L280.783 62.3027C280.041 62.9624 279.436 63.311 278.694 63.311ZM284.478 64.1519L285.753 64.1519L285.753 56.5503L284.478 56.5503L284.478 64.1519ZM285.121 54.9814C285.626 54.9814 286.002 54.6328 286.002 54.1543C286.002 53.6382 285.626 53.3306 285.121 53.3306C284.618 53.3306 284.239 53.6382 284.239 54.1543C284.239 54.6328 284.618 54.9814 285.121 54.9814ZM288.328 64.1519L289.603 64.1519L289.603 58.6353C290.372 57.8662 290.902 57.4731 291.688 57.4731C292.696 57.4731 293.13 58.0747 293.13 59.5034L293.13 64.1519L294.402 64.1519L294.402 59.3359C294.402 57.3911 293.677 56.3555 292.081 56.3555C291.042 56.3555 290.259 56.9263 289.531 57.6406L289.49 57.6406L289.377 56.5503L288.328 56.5503L288.328 64.1519ZM299.948 64.333C300.983 64.333 301.797 63.9844 302.467 63.5503L302.005 62.7095C301.445 63.0889 300.843 63.311 300.102 63.311C298.659 63.311 297.665 62.2754 297.583 60.6519L302.706 60.6519C302.733 60.4707 302.761 60.2041 302.761 59.9238C302.761 57.7534 301.671 56.3555 299.736 56.3555C297.972 56.3555 296.308 57.8936 296.308 60.3579C296.308 62.8633 297.931 64.333 299.948 64.333ZM297.569 59.7427C297.723 58.2422 298.673 57.3774 299.753 57.3774C300.942 57.3774 301.64 58.2012 301.64 59.7427L297.569 59.7427ZM304.638 64.1519L305.913 64.1519L305.913 59.2642C306.415 57.9653 307.198 57.5142 307.83 57.5142C308.138 57.5142 308.319 57.5449 308.572 57.6406L308.808 56.5229C308.572 56.3965 308.333 56.3555 307.998 56.3555C307.143 56.3555 306.374 56.9707 305.841 57.9346L305.8 57.9346L305.687 56.5503L304.638 56.5503L304.638 64.1519ZM311.132 58.6934C311.638 58.6934 312.058 58.2866 312.058 57.7261C312.058 57.1382 311.638 56.7314 311.132 56.7314C310.63 56.7314 310.209 57.1382 310.209 57.7261C310.209 58.2866 310.63 58.6934 311.132 58.6934ZM311.132 64.333C311.638 64.333 312.058 63.9434 312.058 63.3691C312.058 62.7949 311.638 62.3745 311.132 62.3745C310.63 62.3745 310.209 62.7949 310.209 63.3691C310.209 63.9434 310.63 64.333 311.132 64.333ZM319.507 64.1519L321.004 64.1519L324.265 53.8911L322.949 53.8911L321.298 59.4487C320.932 60.6519 320.683 61.6328 320.303 62.8359L320.248 62.8359C319.855 61.6328 319.616 60.6519 319.254 59.4487L317.586 53.8911L316.229 53.8911L319.507 64.1519ZM327.289 64.333C328.339 64.333 329.094 63.7896 329.808 62.9624L329.853 62.9624L329.948 64.1519L331.015 64.1519L331.015 56.5503L329.74 56.5503L329.74 61.9404C329.012 62.8496 328.465 63.229 327.682 63.229C326.674 63.229 326.254 62.6274 326.254 61.2124L326.254 56.5503L324.979 56.5503L324.979 61.3662C324.979 63.2974 325.693 64.333 327.289 64.333ZM336.642 64.333C337.677 64.333 338.491 63.9844 339.161 63.5503L338.699 62.7095C338.139 63.0889 337.537 63.311 336.796 63.311C335.353 63.311 334.358 62.2754 334.276 60.6519L339.4 60.6519C339.427 60.4707 339.455 60.2041 339.455 59.9238C339.455 57.7534 338.364 56.3555 336.43 56.3555C334.666 56.3555 333.002 57.8936 333.002 60.3579C333.002 62.8633 334.625 64.333 336.642 64.333ZM334.263 59.7427C334.417 58.2422 335.367 57.3774 336.447 57.3774C337.636 57.3774 338.334 58.2012 338.334 59.7427L334.263 59.7427Z" fill="#19191A" fill-opacity="1.000000" transform="matrix(1 0 0 1 12.0215 12.0215)"/>
	<path d="M28.9636 0L367.426 0L367.426 21L28.9636 21L28.9636 0Z" stroke-opacity="0" fill-opacity="0.000000" fill="#000000" transform="matrix(1 0 0 1 12.0215 12.0215)"/>
	<path d="M46.5829 109.564L47.6049 109.564L47.6049 106.499L50.4486 106.499L50.4486 105.545L47.6049 105.545L47.6049 102.493L46.5829 102.493L46.5829 105.545L43.7426 105.545L43.7426 106.499L46.5829 106.499L46.5829 109.564ZM54.6605 111.369C55.1219 111.369 55.6278 111.229 56.0619 111.089L55.8089 110.139C55.556 110.234 55.2074 110.334 54.9408 110.334C54.0589 110.334 53.765 109.8 53.765 108.864L53.765 104.622L55.8226 104.622L55.8226 103.586L53.765 103.586L53.765 101.457L52.702 101.457L52.5482 103.586L51.3587 103.655L51.3587 104.622L52.4901 104.622L52.4901 108.836C52.4901 110.361 53.037 111.369 54.6605 111.369ZM60.4018 111.369C61.4375 111.369 62.2509 111.021 62.9209 110.586L62.4594 109.746C61.8989 110.125 61.2973 110.347 60.5556 110.347C59.1132 110.347 58.1186 109.312 58.0366 107.688L63.1601 107.688C63.1875 107.507 63.2148 107.24 63.2148 106.96C63.2148 104.79 62.1245 103.392 60.1899 103.392C58.4262 103.392 56.7617 104.93 56.7617 107.394C56.7617 109.899 58.3852 111.369 60.4018 111.369ZM58.0229 106.779C58.1767 105.278 59.1269 104.414 60.207 104.414C61.3964 104.414 62.0937 105.237 62.0937 106.779L58.0229 106.779ZM66.4351 111.369C66.7701 111.369 66.9957 111.328 67.1768 111.256L66.9957 110.279C66.8555 110.306 66.8008 110.306 66.7291 110.306C66.5342 110.306 66.3668 110.152 66.3668 109.759L66.3668 100.045L65.0919 100.045L65.0919 109.677C65.0919 110.754 65.4849 111.369 66.4351 111.369ZM72.1478 111.369C73.1834 111.369 73.9969 111.021 74.6668 110.586L74.2054 109.746C73.6448 110.125 73.0433 110.347 72.3016 110.347C70.8592 110.347 69.8646 109.312 69.7825 107.688L74.9061 107.688C74.9334 107.507 74.9608 107.24 74.9608 106.96C74.9608 104.79 73.8704 103.392 71.9359 103.392C70.1722 103.392 68.5076 104.93 68.5076 107.394C68.5076 109.899 70.1312 111.369 72.1478 111.369ZM69.7689 106.779C69.9227 105.278 70.8729 104.414 71.9529 104.414C73.1424 104.414 73.8397 105.237 73.8397 106.779L69.7689 106.779ZM76.8378 114.394L78.1127 114.394L78.1127 111.817L78.082 110.487C78.769 111.048 79.497 111.369 80.184 111.369C81.934 111.369 83.4858 109.872 83.4858 107.268C83.4858 104.93 82.4228 103.392 80.4643 103.392C79.5825 103.392 78.728 103.894 78.0409 104.455L77.9999 104.455L77.8871 103.586L76.8378 103.586L76.8378 114.394ZM79.9721 110.306C79.4697 110.306 78.7963 110.098 78.1127 109.506L78.1127 105.518C78.8544 104.831 79.5107 104.468 80.1567 104.468C81.5956 104.468 82.1562 105.603 82.1562 107.281C82.1562 109.171 81.2333 110.306 79.9721 110.306ZM88.4709 111.369C90.3337 111.369 91.9983 109.913 91.9983 107.394C91.9983 104.861 90.3337 103.392 88.4709 103.392C86.6081 103.392 84.9436 104.861 84.9436 107.394C84.9436 109.913 86.6081 111.369 88.4709 111.369ZM88.4709 110.306C87.155 110.306 86.2732 109.144 86.2732 107.394C86.2732 105.644 87.155 104.455 88.4709 104.455C89.7868 104.455 90.6823 105.644 90.6823 107.394C90.6823 109.144 89.7868 110.306 88.4709 110.306ZM94.0017 111.188L95.2766 111.188L95.2766 106.3C95.7791 105.001 96.5618 104.55 97.1941 104.55C97.5017 104.55 97.6829 104.581 97.9358 104.677L98.1717 103.559C97.9358 103.433 97.6966 103.392 97.3616 103.392C96.5071 103.392 95.7381 104.007 95.2049 104.971L95.1639 104.971L95.0511 103.586L94.0017 103.586L94.0017 111.188ZM101.826 111.369C102.288 111.369 102.794 111.229 103.228 111.089L102.975 110.139C102.722 110.234 102.373 110.334 102.107 110.334C101.225 110.334 100.931 109.8 100.931 108.864L100.931 104.622L102.988 104.622L102.988 103.586L100.931 103.586L100.931 101.457L99.8678 101.457L99.714 103.586L98.5245 103.655L98.5245 104.622L99.6559 104.622L99.6559 108.836C99.6559 110.361 100.203 111.369 101.826 111.369ZM106.769 113.946L107.566 113.567C106.349 111.581 105.775 109.212 105.775 106.834C105.775 104.455 106.349 102.103 107.566 100.1L106.769 99.7344C105.481 101.823 104.712 104.089 104.712 106.834C104.712 109.592 105.481 111.848 106.769 113.946ZM110.1 111.369C110.606 111.369 111.026 110.979 111.026 110.405C111.026 109.831 110.606 109.411 110.1 109.411C109.597 109.411 109.177 109.831 109.177 110.405C109.177 110.979 109.597 111.369 110.1 111.369ZM113.992 111.369C114.498 111.369 114.918 110.979 114.918 110.405C114.918 109.831 114.498 109.411 113.992 109.411C113.489 109.411 113.069 109.831 113.069 110.405C113.069 110.979 113.489 111.369 113.992 111.369ZM117.884 111.369C118.39 111.369 118.81 110.979 118.81 110.405C118.81 109.831 118.39 109.411 117.884 109.411C117.381 109.411 116.961 109.831 116.961 110.405C116.961 110.979 117.381 111.369 117.884 111.369ZM122.87 111.369C123.806 111.369 124.661 110.88 125.389 110.279L125.43 110.279L125.542 111.188L126.592 111.188L126.592 106.512C126.592 104.636 125.809 103.392 123.96 103.392C122.743 103.392 121.667 103.935 120.966 104.383L121.468 105.265C122.07 104.861 122.87 104.455 123.751 104.455C124.996 104.455 125.32 105.391 125.32 106.372C122.084 106.734 120.645 107.562 120.645 109.212C120.645 110.586 121.595 111.369 122.87 111.369ZM123.232 110.347C122.477 110.347 121.889 109.999 121.889 109.13C121.889 108.149 122.757 107.521 125.32 107.213L125.32 109.339C124.579 109.999 123.974 110.347 123.232 110.347ZM129.016 111.188L130.29 111.188L130.29 106.3C130.793 105.001 131.576 104.55 132.208 104.55C132.516 104.55 132.697 104.581 132.95 104.677L133.186 103.559C132.95 103.433 132.71 103.392 132.375 103.392C131.521 103.392 130.752 104.007 130.219 104.971L130.178 104.971L130.065 103.586L129.016 103.586L129.016 111.188ZM136.854 114.688C139.209 114.688 140.692 113.471 140.692 112.056C140.692 110.809 139.81 110.251 138.046 110.251L136.56 110.251C135.538 110.251 135.23 109.913 135.23 109.424C135.23 109.004 135.442 108.751 135.722 108.515C136.057 108.683 136.478 108.778 136.854 108.778C138.395 108.778 139.626 107.756 139.626 106.133C139.626 105.477 139.376 104.916 139.01 104.567L140.566 104.567L140.566 103.586L137.92 103.586C137.653 103.487 137.274 103.392 136.854 103.392C135.316 103.392 134 104.441 134 106.105C134 107.015 134.488 107.743 134.994 108.149L134.994 108.208C134.601 108.484 134.14 108.99 134.14 109.619C134.14 110.221 134.434 110.627 134.84 110.867L134.84 110.921C134.126 111.383 133.706 112.001 133.706 112.644C133.706 113.96 134.994 114.688 136.854 114.688ZM136.854 107.914C135.972 107.914 135.23 107.213 135.23 106.105C135.23 104.984 135.958 104.328 136.854 104.328C137.753 104.328 138.463 105.001 138.463 106.105C138.463 107.213 137.722 107.914 136.854 107.914ZM137.038 113.82C135.65 113.82 134.823 113.287 134.823 112.477C134.823 112.029 135.063 111.581 135.609 111.188C135.944 111.273 136.31 111.314 136.59 111.314L137.906 111.314C138.915 111.314 139.458 111.55 139.458 112.251C139.458 113.051 138.494 113.82 137.038 113.82ZM144.161 111.369C145.956 111.369 146.933 110.347 146.933 109.117C146.933 107.674 145.717 107.227 144.613 106.806C143.758 106.485 142.931 106.218 142.931 105.49C142.931 104.902 143.365 104.396 144.319 104.396C145.002 104.396 145.535 104.677 146.069 105.07L146.684 104.243C146.082 103.781 145.255 103.392 144.319 103.392C142.664 103.392 141.7 104.342 141.7 105.545C141.7 106.834 142.904 107.353 143.967 107.743C144.807 108.067 145.703 108.416 145.703 109.185C145.703 109.845 145.214 110.375 144.206 110.375C143.297 110.375 142.61 110.012 141.95 109.479L141.321 110.32C142.049 110.921 143.085 111.369 144.161 111.369ZM149.384 105.729C149.89 105.729 150.31 105.323 150.31 104.762C150.31 104.174 149.89 103.768 149.384 103.768C148.881 103.768 148.461 104.174 148.461 104.762C148.461 105.323 148.881 105.729 149.384 105.729ZM149.384 111.369C149.89 111.369 150.31 110.979 150.31 110.405C150.31 109.831 149.89 109.411 149.384 109.411C148.881 109.411 148.461 109.831 148.461 110.405C148.461 110.979 148.881 111.369 149.384 111.369ZM157.813 113.946L158.609 113.567C157.393 111.581 156.818 109.212 156.818 106.834C156.818 104.455 157.393 102.103 158.609 100.1L157.813 99.7344C156.525 101.823 155.755 104.089 155.755 106.834C155.755 109.592 156.525 111.848 157.813 113.946ZM160.6 111.188L161.902 111.188L161.902 107.114L163.594 107.114C165.837 107.114 167.375 106.105 167.375 103.935C167.375 101.696 165.837 100.927 163.526 100.927L160.6 100.927L160.6 111.188ZM161.902 106.064L161.902 101.977L163.372 101.977C165.177 101.977 166.086 102.452 166.086 103.935C166.086 105.405 165.232 106.064 163.427 106.064L161.902 106.064ZM170.413 111.369C171.35 111.369 172.204 110.88 172.932 110.279L172.973 110.279L173.086 111.188L174.136 111.188L174.136 106.512C174.136 104.636 173.353 103.392 171.504 103.392C170.287 103.392 169.21 103.935 168.51 104.383L169.012 105.265C169.614 104.861 170.413 104.455 171.295 104.455C172.539 104.455 172.864 105.391 172.864 106.372C169.627 106.734 168.188 107.562 168.188 109.212C168.188 110.586 169.139 111.369 170.413 111.369ZM170.776 110.347C170.02 110.347 169.432 109.999 169.432 109.13C169.432 108.149 170.301 107.521 172.864 107.213L172.864 109.339C172.122 109.999 171.517 110.347 170.776 110.347ZM176.559 111.188L177.834 111.188L177.834 106.3C178.337 105.001 179.119 104.55 179.752 104.55C180.059 104.55 180.241 104.581 180.493 104.677L180.729 103.559C180.493 103.433 180.254 103.392 179.919 103.392C179.065 103.392 178.296 104.007 177.763 104.971L177.721 104.971L177.609 103.586L176.559 103.586L176.559 111.188ZM183.363 111.369C184.3 111.369 185.154 110.88 185.882 110.279L185.923 110.279L186.036 111.188L187.086 111.188L187.086 106.512C187.086 104.636 186.303 103.392 184.454 103.392C183.237 103.392 182.16 103.935 181.46 104.383L181.962 105.265C182.564 104.861 183.363 104.455 184.245 104.455C185.489 104.455 185.814 105.391 185.814 106.372C182.577 106.734 181.138 107.562 181.138 109.212C181.138 110.586 182.088 111.369 183.363 111.369ZM183.726 110.347C182.97 110.347 182.382 109.999 182.382 109.13C182.382 108.149 183.251 107.521 185.814 107.213L185.814 109.339C185.072 109.999 184.467 110.347 183.726 110.347ZM189.509 111.188L190.784 111.188L190.784 105.671C191.481 104.889 192.127 104.509 192.702 104.509C193.666 104.509 194.113 105.111 194.113 106.54L194.113 111.188L195.388 111.188L195.388 105.671C196.103 104.889 196.718 104.509 197.306 104.509C198.273 104.509 198.721 105.111 198.721 106.54L198.721 111.188L199.996 111.188L199.996 106.372C199.996 104.427 199.254 103.392 197.685 103.392C196.762 103.392 195.962 103.993 195.18 104.848C194.872 103.949 194.24 103.392 193.078 103.392C192.169 103.392 191.372 103.962 190.712 104.69L190.671 104.69L190.559 103.586L189.509 103.586L189.509 111.188ZM205.539 111.369C206.575 111.369 207.388 111.021 208.058 110.586L207.597 109.746C207.036 110.125 206.435 110.347 205.693 110.347C204.251 110.347 203.256 109.312 203.174 107.688L208.297 107.688C208.325 107.507 208.352 107.24 208.352 106.96C208.352 104.79 207.262 103.392 205.327 103.392C203.564 103.392 201.899 104.93 201.899 107.394C201.899 109.899 203.523 111.369 205.539 111.369ZM203.16 106.779C203.314 105.278 204.264 104.414 205.344 104.414C206.534 104.414 207.231 105.237 207.231 106.779L203.16 106.779ZM212.468 111.369C212.929 111.369 213.435 111.229 213.869 111.089L213.616 110.139C213.363 110.234 213.015 110.334 212.748 110.334C211.866 110.334 211.572 109.8 211.572 108.864L211.572 104.622L213.63 104.622L213.63 103.586L211.572 103.586L211.572 101.457L210.509 101.457L210.355 103.586L209.166 103.655L209.166 104.622L210.297 104.622L210.297 108.836C210.297 110.361 210.844 111.369 212.468 111.369ZM218.209 111.369C219.245 111.369 220.058 111.021 220.728 110.586L220.267 109.746C219.706 110.125 219.105 110.347 218.363 110.347C216.921 110.347 215.926 109.312 215.844 107.688L220.967 107.688C220.995 107.507 221.022 107.24 221.022 106.96C221.022 104.79 219.932 103.392 217.997 103.392C216.234 103.392 214.569 104.93 214.569 107.394C214.569 109.899 216.193 111.369 218.209 111.369ZM215.83 106.779C215.984 105.278 216.934 104.414 218.014 104.414C219.204 104.414 219.901 105.237 219.901 106.779L215.83 106.779ZM222.899 111.188L224.174 111.188L224.174 106.3C224.677 105.001 225.459 104.55 226.092 104.55C226.399 104.55 226.58 104.581 226.833 104.677L227.069 103.559C226.833 103.433 226.594 103.392 226.259 103.392C225.405 103.392 224.635 104.007 224.102 104.971L224.061 104.971L223.948 103.586L222.899 103.586L222.899 111.188ZM230.261 111.369C232.055 111.369 233.033 110.347 233.033 109.117C233.033 107.674 231.816 107.227 230.712 106.806C229.858 106.485 229.031 106.218 229.031 105.49C229.031 104.902 229.465 104.396 230.418 104.396C231.102 104.396 231.635 104.677 232.168 105.07L232.783 104.243C232.182 103.781 231.355 103.392 230.418 103.392C228.764 103.392 227.8 104.342 227.8 105.545C227.8 106.834 229.003 107.353 230.066 107.743C230.907 108.067 231.802 108.416 231.802 109.185C231.802 109.845 231.314 110.375 230.305 110.375C229.396 110.375 228.709 110.012 228.05 109.479L227.421 110.32C228.149 110.921 229.184 111.369 230.261 111.369ZM240.778 109.144L240.778 108.023L237.473 106.806L235.374 106.023L235.374 105.965L237.473 105.183L240.778 103.962L240.778 102.858L234.072 105.49L234.072 106.512L240.778 109.144ZM244.99 111.369C245.451 111.369 245.957 111.229 246.391 111.089L246.138 110.139C245.885 110.234 245.537 110.334 245.27 110.334C244.388 110.334 244.094 109.8 244.094 108.864L244.094 104.622L246.152 104.622L246.152 103.586L244.094 103.586L244.094 101.457L243.031 101.457L242.877 103.586L241.688 103.655L241.688 104.622L242.819 104.622L242.819 108.836C242.819 110.361 243.366 111.369 244.99 111.369ZM248.002 114.462C249.512 114.462 250.295 113.317 250.828 111.817L253.699 103.586L252.452 103.586L251.095 107.814C250.883 108.484 250.661 109.257 250.449 109.94L250.38 109.94C250.141 109.257 249.878 108.471 249.652 107.814L248.097 103.586L246.768 103.586L249.82 111.202L249.652 111.776C249.345 112.712 248.798 113.413 247.93 113.413C247.735 113.413 247.509 113.345 247.356 113.287L247.106 114.309C247.342 114.408 247.636 114.462 248.002 114.462ZM255.169 114.394L256.444 114.394L256.444 111.817L256.413 110.487C257.1 111.048 257.828 111.369 258.515 111.369C260.265 111.369 261.817 109.872 261.817 107.268C261.817 104.93 260.754 103.392 258.796 103.392C257.914 103.392 257.059 103.894 256.372 104.455L256.331 104.455L256.218 103.586L255.169 103.586L255.169 114.394ZM258.303 110.306C257.801 110.306 257.128 110.098 256.444 109.506L256.444 105.518C257.186 104.831 257.842 104.468 258.488 104.468C259.927 104.468 260.487 105.603 260.487 107.281C260.487 109.171 259.565 110.306 258.303 110.306ZM266.915 111.369C267.951 111.369 268.764 111.021 269.434 110.586L268.973 109.746C268.412 110.125 267.81 110.347 267.069 110.347C265.626 110.347 264.632 109.312 264.55 107.688L269.673 107.688C269.701 107.507 269.728 107.24 269.728 106.96C269.728 104.79 268.638 103.392 266.703 103.392C264.939 103.392 263.275 104.93 263.275 107.394C263.275 109.899 264.898 111.369 266.915 111.369ZM264.536 106.779C264.69 105.278 265.64 104.414 266.72 104.414C267.91 104.414 268.607 105.237 268.607 106.779L264.536 106.779ZM274.558 111.369C276.421 111.369 278.085 109.913 278.085 107.394C278.085 104.861 276.421 103.392 274.558 103.392C272.695 103.392 271.031 104.861 271.031 107.394C271.031 109.913 272.695 111.369 274.558 111.369ZM274.558 110.306C273.242 110.306 272.36 109.144 272.36 107.394C272.36 105.644 273.242 104.455 274.558 104.455C275.874 104.455 276.77 105.644 276.77 107.394C276.77 109.144 275.874 110.306 274.558 110.306ZM283.784 100.114C283.421 99.96 282.974 99.8608 282.509 99.8608C280.998 99.8608 280.297 100.828 280.297 102.37L280.297 103.586L279.262 103.655L279.262 104.622L280.297 104.622L280.297 111.188L281.572 111.188L281.572 104.622L283.182 104.622L283.182 103.586L281.572 103.586L281.572 102.383C281.572 101.402 281.921 100.883 282.649 100.883C282.916 100.883 283.223 100.955 283.504 101.081L283.784 100.114ZM287.775 111.188L289.05 111.188L289.05 105.671C289.819 104.902 290.349 104.509 291.135 104.509C292.143 104.509 292.577 105.111 292.577 106.54L292.577 111.188L293.849 111.188L293.849 106.372C293.849 104.427 293.124 103.392 291.528 103.392C290.489 103.392 289.706 103.962 289.005 104.663L289.05 103.098L289.05 100.045L287.775 100.045L287.775 111.188ZM295.518 109.144L302.224 106.512L302.224 105.49L295.518 102.858L295.518 103.962L298.819 105.183L300.921 105.965L300.921 106.023L298.819 106.806L295.518 108.023L295.518 109.144ZM304.142 113.946C305.441 111.848 306.213 109.592 306.213 106.834C306.213 104.089 305.441 101.823 304.142 99.7344L303.356 100.1C304.559 102.103 305.147 104.455 305.147 106.834C305.147 109.212 304.559 111.581 303.356 113.567L304.142 113.946ZM308.874 113.946C310.173 111.848 310.945 109.592 310.945 106.834C310.945 104.089 310.173 101.823 308.874 99.7344L308.088 100.1C309.291 102.103 309.879 104.455 309.879 106.834C309.879 109.212 309.291 111.581 308.088 113.567L308.874 113.946ZM314.163 105.729C314.669 105.729 315.089 105.323 315.089 104.762C315.089 104.174 314.669 103.768 314.163 103.768C313.661 103.768 313.24 104.174 313.24 104.762C313.24 105.323 313.661 105.729 314.163 105.729ZM314.163 111.369C314.669 111.369 315.089 110.979 315.089 110.405C315.089 109.831 314.669 109.411 314.163 109.411C313.661 109.411 313.24 109.831 313.24 110.405C313.24 110.979 313.661 111.369 314.163 111.369ZM324.288 111.369C326.386 111.369 327.983 110.251 327.983 106.946L327.983 100.927L326.735 100.927L326.735 106.987C326.735 109.465 325.658 110.234 324.288 110.234C322.955 110.234 321.905 109.465 321.905 106.987L321.905 100.927L320.603 100.927L320.603 106.946C320.603 110.251 322.199 111.369 324.288 111.369ZM330.629 111.188L331.904 111.188L331.904 105.671C332.673 104.902 333.202 104.509 333.989 104.509C334.997 104.509 335.431 105.111 335.431 106.54L335.431 111.188L336.702 111.188L336.702 106.372C336.702 104.427 335.978 103.392 334.382 103.392C333.343 103.392 332.56 103.962 331.832 104.677L331.791 104.677L331.678 103.586L330.629 103.586L330.629 111.188ZM339.183 111.188L340.458 111.188L340.458 105.671C341.155 104.889 341.801 104.509 342.375 104.509C343.339 104.509 343.787 105.111 343.787 106.54L343.787 111.188L345.062 111.188L345.062 105.671C345.776 104.889 346.391 104.509 346.979 104.509C347.946 104.509 348.394 105.111 348.394 106.54L348.394 111.188L349.669 111.188L349.669 106.372C349.669 104.427 348.927 103.392 347.359 103.392C346.436 103.392 345.636 103.993 344.853 104.848C344.546 103.949 343.913 103.392 342.751 103.392C341.842 103.392 341.046 103.962 340.386 104.69L340.345 104.69L340.232 103.586L339.183 103.586L339.183 111.188ZM355.1 111.369C356.963 111.369 358.627 109.913 358.627 107.394C358.627 104.861 356.963 103.392 355.1 103.392C353.237 103.392 351.572 104.861 351.572 107.394C351.572 109.913 353.237 111.369 355.1 111.369ZM355.1 110.306C353.784 110.306 352.902 109.144 352.902 107.394C352.902 105.644 353.784 104.455 355.1 104.455C356.416 104.455 357.311 105.644 357.311 107.394C357.311 109.144 356.416 110.306 355.1 110.306ZM362.842 111.369C363.891 111.369 364.647 110.826 365.361 109.999L365.406 109.999L365.501 111.188L366.568 111.188L366.568 103.586L365.293 103.586L365.293 108.977C364.565 109.886 364.018 110.265 363.235 110.265C362.227 110.265 361.806 109.664 361.806 108.249L361.806 103.586L360.532 103.586L360.532 108.402C360.532 110.334 361.246 111.369 362.842 111.369ZM369.129 111.188L370.404 111.188L370.404 105.671C371.173 104.902 371.702 104.509 372.488 104.509C373.497 104.509 373.931 105.111 373.931 106.54L373.931 111.188L375.202 111.188L375.202 106.372C375.202 104.427 374.478 103.392 372.882 103.392C371.842 103.392 371.06 103.962 370.332 104.677L370.291 104.677L370.178 103.586L369.129 103.586L369.129 111.188ZM380.075 111.369C380.537 111.369 381.042 111.229 381.477 111.089L381.224 110.139C380.971 110.234 380.622 110.334 380.355 110.334C379.474 110.334 379.18 109.8 379.18 108.864L379.18 104.622L381.237 104.622L381.237 103.586L379.18 103.586L379.18 101.457L378.117 101.457L377.963 103.586L376.773 103.655L376.773 104.622L377.905 104.622L377.905 108.836C377.905 110.361 378.452 111.369 380.075 111.369Z" fill="#19191A" fill-opacity="1.000000" transform="matrix(1 0 0 1 12.0215 12.0215)"/>
	<path d="M19.5627 21L376.827 21L376.827 42L19.5627 42L19.5627 21Z" stroke-opacity="0" fill-opacity="0.000000" fill="#000000" transform="matrix(1 0 0 1 12.0215 12.0215)"/>
	<path d="M37.1819 130.564L38.2039 130.564L38.2039 127.499L41.0477 127.499L41.0477 126.545L38.2039 126.545L38.2039 123.493L37.1819 123.493L37.1819 126.545L34.3416 126.545L34.3416 127.499L37.1819 127.499L37.1819 130.564ZM48.2144 132.369C49.2637 132.369 50.0191 131.826 50.7334 130.999L50.7779 130.999L50.8736 132.188L51.94 132.188L51.94 124.586L50.6651 124.586L50.6651 129.977C49.937 130.886 49.3902 131.265 48.6075 131.265C47.5992 131.265 47.1787 130.664 47.1787 129.249L47.1787 124.586L45.9038 124.586L45.9038 129.402C45.9038 131.333 46.6182 132.369 48.2144 132.369ZM54.5009 132.188L55.7759 132.188L55.7759 126.671C56.5449 125.902 57.0747 125.509 57.8608 125.509C58.8691 125.509 59.3032 126.111 59.3032 127.54L59.3032 132.188L60.5747 132.188L60.5747 127.372C60.5747 125.427 59.8501 124.392 58.2539 124.392C57.2148 124.392 56.4321 124.962 55.7041 125.677L55.6631 125.677L55.5503 124.586L54.5009 124.586L54.5009 132.188ZM63.0549 132.188L64.3298 132.188L64.3298 126.671C65.0271 125.889 65.6731 125.509 66.2473 125.509C67.2112 125.509 67.6589 126.111 67.6589 127.54L67.6589 132.188L68.9338 132.188L68.9338 126.671C69.6482 125.889 70.2634 125.509 70.8513 125.509C71.8186 125.509 72.2663 126.111 72.2663 127.54L72.2663 132.188L73.5412 132.188L73.5412 127.372C73.5412 125.427 72.7995 124.392 71.2307 124.392C70.3078 124.392 69.508 124.993 68.7253 125.848C68.4177 124.949 67.7854 124.392 66.6233 124.392C65.7141 124.392 64.9177 124.962 64.258 125.69L64.217 125.69L64.1042 124.586L63.0549 124.586L63.0549 132.188ZM78.972 132.369C80.8348 132.369 82.4993 130.913 82.4993 128.394C82.4993 125.861 80.8348 124.392 78.972 124.392C77.1092 124.392 75.4446 125.861 75.4446 128.394C75.4446 130.913 77.1092 132.369 78.972 132.369ZM78.972 131.306C77.656 131.306 76.7742 130.144 76.7742 128.394C76.7742 126.644 77.656 125.455 78.972 125.455C80.2879 125.455 81.1834 126.644 81.1834 128.394C81.1834 130.144 80.2879 131.306 78.972 131.306ZM86.7142 132.369C87.7635 132.369 88.5189 131.826 89.2333 130.999L89.2777 130.999L89.3734 132.188L90.4398 132.188L90.4398 124.586L89.1649 124.586L89.1649 129.977C88.4369 130.886 87.89 131.265 87.1073 131.265C86.099 131.265 85.6786 130.664 85.6786 129.249L85.6786 124.586L84.4037 124.586L84.4037 129.402C84.4037 131.333 85.118 132.369 86.7142 132.369ZM93.0008 132.188L94.2757 132.188L94.2757 126.671C95.0447 125.902 95.5745 125.509 96.3606 125.509C97.3689 125.509 97.803 126.111 97.803 127.54L97.803 132.188L99.0745 132.188L99.0745 127.372C99.0745 125.427 98.3499 124.392 96.7537 124.392C95.7146 124.392 94.9319 124.962 94.2039 125.677L94.1629 125.677L94.0501 124.586L93.0008 124.586L93.0008 132.188ZM103.947 132.369C104.409 132.369 104.915 132.229 105.349 132.089L105.096 131.139C104.843 131.234 104.494 131.333 104.228 131.333C103.346 131.333 103.052 130.8 103.052 129.864L103.052 125.622L105.109 125.622L105.109 124.586L103.052 124.586L103.052 122.457L101.989 122.457L101.835 124.586L100.646 124.655L100.646 125.622L101.777 125.622L101.777 129.836C101.777 131.361 102.324 132.369 103.947 132.369ZM108.217 128.015L108.723 126.449C109.085 125.287 109.424 124.18 109.745 122.977L109.8 122.977C110.134 124.166 110.459 125.287 110.835 126.449L111.327 128.015L108.217 128.015ZM112.63 132.188L114 132.188L110.514 121.927L109.071 121.927L105.585 132.188L106.901 132.188L107.896 129.05L111.649 129.05L112.63 132.188ZM116.674 132.369C117.009 132.369 117.234 132.328 117.416 132.256L117.234 131.279C117.094 131.306 117.04 131.306 116.968 131.306C116.773 131.306 116.606 131.152 116.606 130.759L116.606 121.045L115.331 121.045L115.331 130.677C115.331 131.754 115.724 132.369 116.674 132.369ZM120.664 132.369C120.999 132.369 121.224 132.328 121.406 132.256L121.224 131.279C121.084 131.306 121.03 131.306 120.958 131.306C120.763 131.306 120.596 131.152 120.596 130.759L120.596 121.045L119.321 121.045L119.321 130.677C119.321 131.754 119.714 132.369 120.664 132.369ZM125.563 132.188L126.865 132.188L126.865 123.018L129.976 123.018L129.976 121.927L122.456 121.927L122.456 123.018L125.563 123.018L125.563 132.188ZM133.727 132.369C134.762 132.369 135.576 132.021 136.246 131.586L135.784 130.746C135.224 131.125 134.622 131.347 133.88 131.347C132.438 131.347 131.443 130.312 131.361 128.688L136.485 128.688C136.512 128.507 136.54 128.24 136.54 127.96C136.54 125.79 135.449 124.392 133.515 124.392C131.751 124.392 130.086 125.93 130.086 128.394C130.086 130.899 131.71 132.369 133.727 132.369ZM131.348 127.779C131.501 126.278 132.452 125.414 133.532 125.414C134.721 125.414 135.418 126.237 135.418 127.779L131.348 127.779ZM139.76 132.369C140.095 132.369 140.32 132.328 140.502 132.256L140.32 131.279C140.18 131.306 140.126 131.306 140.054 131.306C139.859 131.306 139.691 131.152 139.691 130.759L139.691 121.045L138.417 121.045L138.417 130.677C138.417 131.754 138.81 132.369 139.76 132.369ZM145.473 132.369C146.508 132.369 147.322 132.021 147.992 131.586L147.53 130.746C146.97 131.125 146.368 131.347 145.626 131.347C144.184 131.347 143.189 130.312 143.107 128.688L148.231 128.688C148.258 128.507 148.285 128.24 148.285 127.96C148.285 125.79 147.195 124.392 145.261 124.392C143.497 124.392 141.832 125.93 141.832 128.394C141.832 130.899 143.456 132.369 145.473 132.369ZM143.094 127.779C143.247 126.278 144.198 125.414 145.278 125.414C146.467 125.414 147.164 126.237 147.164 127.779L143.094 127.779ZM150.163 135.394L151.437 135.394L151.437 132.817L151.407 131.487C152.094 132.048 152.822 132.369 153.509 132.369C155.259 132.369 156.811 130.872 156.811 128.268C156.811 125.93 155.748 124.392 153.789 124.392C152.907 124.392 152.053 124.894 151.366 125.455L151.325 125.455L151.212 124.586L150.163 124.586L150.163 135.394ZM153.297 131.306C152.794 131.306 152.121 131.098 151.437 130.506L151.437 126.518C152.179 125.831 152.835 125.468 153.481 125.468C154.92 125.468 155.481 126.603 155.481 128.281C155.481 130.171 154.558 131.306 153.297 131.306ZM161.796 132.369C163.658 132.369 165.323 130.913 165.323 128.394C165.323 125.861 163.658 124.392 161.796 124.392C159.933 124.392 158.268 125.861 158.268 128.394C158.268 130.913 159.933 132.369 161.796 132.369ZM161.796 131.306C160.48 131.306 159.598 130.144 159.598 128.394C159.598 126.644 160.48 125.455 161.796 125.455C163.112 125.455 164.007 126.644 164.007 128.394C164.007 130.144 163.112 131.306 161.796 131.306ZM167.327 132.188L168.601 132.188L168.601 127.3C169.104 126.001 169.887 125.55 170.519 125.55C170.827 125.55 171.008 125.581 171.261 125.677L171.496 124.559C171.261 124.433 171.021 124.392 170.686 124.392C169.832 124.392 169.063 125.007 168.53 125.971L168.489 125.971L168.376 124.586L167.327 124.586L167.327 132.188ZM175.151 132.369C175.612 132.369 176.118 132.229 176.552 132.089L176.299 131.139C176.047 131.234 175.698 131.333 175.431 131.333C174.549 131.333 174.256 130.8 174.256 129.864L174.256 125.622L176.313 125.622L176.313 124.586L174.256 124.586L174.256 122.457L173.193 122.457L173.039 124.586L171.849 124.655L171.849 125.622L172.981 125.622L172.981 129.836C172.981 131.361 173.528 132.369 175.151 132.369ZM180.892 132.369C181.928 132.369 182.741 132.021 183.411 131.586L182.95 130.746C182.389 131.125 181.788 131.347 181.046 131.347C179.604 131.347 178.609 130.312 178.527 128.688L183.651 128.688C183.678 128.507 183.705 128.24 183.705 127.96C183.705 125.79 182.615 124.392 180.68 124.392C178.917 124.392 177.252 125.93 177.252 128.394C177.252 130.899 178.876 132.369 180.892 132.369ZM178.513 127.779C178.667 126.278 179.617 125.414 180.698 125.414C181.887 125.414 182.584 126.237 182.584 127.779L178.513 127.779ZM188.173 132.369C189.082 132.369 189.879 131.88 190.48 131.292L190.511 131.292L190.634 132.188L191.673 132.188L191.673 121.045L190.398 121.045L190.398 123.971L190.467 125.287C189.797 124.727 189.223 124.392 188.327 124.392C186.591 124.392 185.036 125.93 185.036 128.394C185.036 130.927 186.269 132.369 188.173 132.369ZM188.454 131.306C187.107 131.306 186.351 130.212 186.351 128.38C186.351 126.644 187.319 125.468 188.549 125.468C189.182 125.468 189.752 125.69 190.398 126.265L190.398 130.257C189.769 130.958 189.151 131.306 188.454 131.306ZM198.251 132.369C199.581 132.369 200.589 131.839 201.403 130.899L200.688 130.089C200.029 130.8 199.287 131.234 198.309 131.234C196.347 131.234 195.117 129.611 195.117 127.023C195.117 124.46 196.405 122.864 198.35 122.864C199.232 122.864 199.919 123.271 200.449 123.845L201.15 123.004C200.562 122.348 199.581 121.729 198.337 121.729C195.732 121.729 193.787 123.746 193.787 127.064C193.787 130.397 195.705 132.369 198.251 132.369ZM206.147 132.369C208.01 132.369 209.675 130.913 209.675 128.394C209.675 125.861 208.01 124.392 206.147 124.392C204.285 124.392 202.62 125.861 202.62 128.394C202.62 130.913 204.285 132.369 206.147 132.369ZM206.147 131.306C204.832 131.306 203.95 130.144 203.95 128.394C203.95 126.644 204.832 125.455 206.147 125.455C207.463 125.455 208.359 126.644 208.359 128.394C208.359 130.144 207.463 131.306 206.147 131.306ZM211.678 132.188L212.953 132.188L212.953 126.671C213.65 125.889 214.296 125.509 214.871 125.509C215.835 125.509 216.282 126.111 216.282 127.54L216.282 132.188L217.557 132.188L217.557 126.671C218.272 125.889 218.887 125.509 219.475 125.509C220.442 125.509 220.89 126.111 220.89 127.54L220.89 132.188L222.165 132.188L222.165 127.372C222.165 125.427 221.423 124.392 219.854 124.392C218.931 124.392 218.131 124.993 217.349 125.848C217.041 124.949 216.409 124.392 215.247 124.392C214.337 124.392 213.541 124.962 212.881 125.69L212.84 125.69L212.728 124.586L211.678 124.586L211.678 132.188ZM224.642 135.394L225.917 135.394L225.917 132.817L225.886 131.487C226.573 132.048 227.301 132.369 227.988 132.369C229.738 132.369 231.29 130.872 231.29 128.268C231.29 125.93 230.227 124.392 228.269 124.392C227.387 124.392 226.532 124.894 225.845 125.455L225.804 125.455L225.692 124.586L224.642 124.586L224.642 135.394ZM227.777 131.306C227.274 131.306 226.601 131.098 225.917 130.506L225.917 126.518C226.659 125.831 227.315 125.468 227.961 125.468C229.4 125.468 229.961 126.603 229.961 128.281C229.961 130.171 229.038 131.306 227.777 131.306ZM236.275 132.369C238.138 132.369 239.803 130.913 239.803 128.394C239.803 125.861 238.138 124.392 236.275 124.392C234.413 124.392 232.748 125.861 232.748 128.394C232.748 130.913 234.413 132.369 236.275 132.369ZM236.275 131.306C234.959 131.306 234.078 130.144 234.078 128.394C234.078 126.644 234.959 125.455 236.275 125.455C237.591 125.455 238.487 126.644 238.487 128.394C238.487 130.144 237.591 131.306 236.275 131.306ZM241.806 132.188L243.081 132.188L243.081 126.671C243.85 125.902 244.38 125.509 245.166 125.509C246.174 125.509 246.608 126.111 246.608 127.54L246.608 132.188L247.88 132.188L247.88 127.372C247.88 125.427 247.155 124.392 245.559 124.392C244.52 124.392 243.737 124.962 243.009 125.677L242.968 125.677L242.855 124.586L241.806 124.586L241.806 132.188ZM253.426 132.369C254.462 132.369 255.275 132.021 255.945 131.586L255.484 130.746C254.923 131.125 254.322 131.347 253.58 131.347C252.137 131.347 251.143 130.312 251.061 128.688L256.184 128.688C256.212 128.507 256.239 128.24 256.239 127.96C256.239 125.79 255.149 124.392 253.214 124.392C251.45 124.392 249.786 125.93 249.786 128.394C249.786 130.899 251.409 132.369 253.426 132.369ZM251.047 127.779C251.201 126.278 252.151 125.414 253.231 125.414C254.421 125.414 255.118 126.237 255.118 127.779L251.047 127.779ZM258.116 132.188L259.391 132.188L259.391 126.671C260.16 125.902 260.69 125.509 261.476 125.509C262.484 125.509 262.918 126.111 262.918 127.54L262.918 132.188L264.19 132.188L264.19 127.372C264.19 125.427 263.465 124.392 261.869 124.392C260.83 124.392 260.047 124.962 259.319 125.677L259.278 125.677L259.165 124.586L258.116 124.586L258.116 132.188ZM269.063 132.369C269.524 132.369 270.03 132.229 270.464 132.089L270.211 131.139C269.958 131.234 269.61 131.333 269.343 131.333C268.461 131.333 268.167 130.8 268.167 129.864L268.167 125.622L270.225 125.622L270.225 124.586L268.167 124.586L268.167 122.457L267.104 122.457L266.95 124.586L265.761 124.655L265.761 125.622L266.892 125.622L266.892 129.836C266.892 131.361 267.439 132.369 269.063 132.369ZM273.78 132.369C275.574 132.369 276.552 131.347 276.552 130.117C276.552 128.674 275.335 128.227 274.231 127.806C273.377 127.485 272.549 127.218 272.549 126.49C272.549 125.902 272.983 125.396 273.937 125.396C274.621 125.396 275.154 125.677 275.687 126.07L276.302 125.243C275.701 124.781 274.874 124.392 273.937 124.392C272.283 124.392 271.319 125.342 271.319 126.545C271.319 127.834 272.522 128.353 273.585 128.743C274.426 129.067 275.321 129.416 275.321 130.185C275.321 130.845 274.833 131.375 273.824 131.375C272.915 131.375 272.228 131.012 271.568 130.479L270.94 131.32C271.668 131.921 272.703 132.369 273.78 132.369ZM280.404 134.946L281.2 134.567C279.983 132.581 279.409 130.212 279.409 127.834C279.409 125.455 279.983 123.103 281.2 121.1L280.404 120.734C279.115 122.823 278.346 125.089 278.346 127.834C278.346 130.592 279.115 132.848 280.404 134.946ZM283.177 134.946C284.476 132.848 285.248 130.592 285.248 127.834C285.248 125.089 284.476 122.823 283.177 120.734L282.391 121.1C283.594 123.103 284.182 125.455 284.182 127.834C284.182 130.212 283.594 132.581 282.391 134.567L283.177 134.946ZM288.466 126.729C288.972 126.729 289.393 126.323 289.393 125.762C289.393 125.174 288.972 124.768 288.466 124.768C287.964 124.768 287.543 125.174 287.543 125.762C287.543 126.323 287.964 126.729 288.466 126.729ZM288.466 132.369C288.972 132.369 289.393 131.979 289.393 131.405C289.393 130.831 288.972 130.411 288.466 130.411C287.964 130.411 287.543 130.831 287.543 131.405C287.543 131.979 287.964 132.369 288.466 132.369ZM294.951 132.188L296.253 132.188L296.253 128.114L297.945 128.114C300.187 128.114 301.725 127.105 301.725 124.935C301.725 122.696 300.187 121.927 297.877 121.927L294.951 121.927L294.951 132.188ZM296.253 127.064L296.253 122.977L297.723 122.977C299.527 122.977 300.437 123.452 300.437 124.935C300.437 126.405 299.582 127.064 297.777 127.064L296.253 127.064ZM303.686 132.188L304.961 132.188L304.961 127.3C305.463 126.001 306.246 125.55 306.878 125.55C307.186 125.55 307.367 125.581 307.62 125.677L307.856 124.559C307.62 124.433 307.381 124.392 307.046 124.392C306.191 124.392 305.422 125.007 304.889 125.971L304.848 125.971L304.735 124.586L303.686 124.586L303.686 132.188ZM311.917 132.369C313.78 132.369 315.444 130.913 315.444 128.394C315.444 125.861 313.78 124.392 311.917 124.392C310.054 124.392 308.39 125.861 308.39 128.394C308.39 130.913 310.054 132.369 311.917 132.369ZM311.917 131.306C310.601 131.306 309.719 130.144 309.719 128.394C309.719 126.644 310.601 125.455 311.917 125.455C313.233 125.455 314.128 126.644 314.128 128.394C314.128 130.144 313.233 131.306 311.917 131.306ZM317.448 132.188L318.723 132.188L318.723 126.671C319.42 125.889 320.066 125.509 320.64 125.509C321.604 125.509 322.052 126.111 322.052 127.54L322.052 132.188L323.327 132.188L323.327 126.671C324.041 125.889 324.656 125.509 325.244 125.509C326.212 125.509 326.659 126.111 326.659 127.54L326.659 132.188L327.934 132.188L327.934 127.372C327.934 125.427 327.192 124.392 325.624 124.392C324.701 124.392 323.901 124.993 323.118 125.848C322.811 124.949 322.178 124.392 321.016 124.392C320.107 124.392 319.311 124.962 318.651 125.69L318.61 125.69L318.497 124.586L317.448 124.586L317.448 132.188ZM330.412 132.188L331.687 132.188L331.687 124.586L330.412 124.586L330.412 132.188ZM331.054 123.018C331.56 123.018 331.936 122.669 331.936 122.19C331.936 121.674 331.56 121.367 331.054 121.367C330.552 121.367 330.173 121.674 330.173 122.19C330.173 122.669 330.552 123.018 331.054 123.018ZM336.248 132.369C338.042 132.369 339.02 131.347 339.02 130.117C339.02 128.674 337.803 128.227 336.699 127.806C335.844 127.485 335.017 127.218 335.017 126.49C335.017 125.902 335.451 125.396 336.405 125.396C337.088 125.396 337.622 125.677 338.155 126.07L338.77 125.243C338.168 124.781 337.341 124.392 336.405 124.392C334.751 124.392 333.787 125.342 333.787 126.545C333.787 127.834 334.99 128.353 336.053 128.743C336.894 129.067 337.789 129.416 337.789 130.185C337.789 130.845 337.3 131.375 336.292 131.375C335.383 131.375 334.696 131.012 334.036 130.479L333.407 131.32C334.135 131.921 335.171 132.369 336.248 132.369ZM343.88 132.369C344.915 132.369 345.729 132.021 346.399 131.586L345.937 130.746C345.377 131.125 344.775 131.347 344.033 131.347C342.591 131.347 341.596 130.312 341.514 128.688L346.638 128.688C346.665 128.507 346.693 128.24 346.693 127.96C346.693 125.79 345.602 124.392 343.668 124.392C341.904 124.392 340.239 125.93 340.239 128.394C340.239 130.899 341.863 132.369 343.88 132.369ZM341.501 127.779C341.655 126.278 342.605 125.414 343.685 125.414C344.874 125.414 345.572 126.237 345.572 127.779L341.501 127.779ZM354.52 130.144L354.52 129.023L351.215 127.806L349.117 127.023L349.117 126.965L351.215 126.183L354.52 124.962L354.52 123.858L347.814 126.49L347.814 127.512L354.52 130.144ZM357.977 132.188L359.46 132.188L362.164 124.586L360.903 124.586L359.46 128.914C359.238 129.655 358.985 130.438 358.76 131.152L358.705 131.152C358.466 130.438 358.23 129.655 357.991 128.914L356.562 124.586L355.232 124.586L357.977 132.188ZM366.531 132.369C368.394 132.369 370.058 130.913 370.058 128.394C370.058 125.861 368.394 124.392 366.531 124.392C364.668 124.392 363.003 125.861 363.003 128.394C363.003 130.913 364.668 132.369 366.531 132.369ZM366.531 131.306C365.215 131.306 364.333 130.144 364.333 128.394C364.333 126.644 365.215 125.455 366.531 125.455C367.847 125.455 368.742 126.644 368.742 128.394C368.742 130.144 367.847 131.306 366.531 131.306ZM372.062 132.188L373.336 132.188L373.336 124.586L372.062 124.586L372.062 132.188ZM372.704 123.018C373.21 123.018 373.586 122.669 373.586 122.19C373.586 121.674 373.21 121.367 372.704 121.367C372.202 121.367 371.822 121.674 371.822 122.19C371.822 122.669 372.202 123.018 372.704 123.018ZM378.502 132.369C379.412 132.369 380.208 131.88 380.809 131.292L380.84 131.292L380.963 132.188L382.002 132.188L382.002 121.045L380.727 121.045L380.727 123.971L380.796 125.287C380.126 124.727 379.552 124.392 378.656 124.392C376.92 124.392 375.365 125.93 375.365 128.394C375.365 130.927 376.599 132.369 378.502 132.369ZM378.783 131.306C377.436 131.306 376.681 130.212 376.681 128.38C376.681 126.644 377.648 125.468 378.878 125.468C379.511 125.468 380.081 125.69 380.727 126.265L380.727 130.257C380.099 130.958 379.48 131.306 378.783 131.306ZM383.836 130.144L390.542 127.512L390.542 126.49L383.836 123.858L383.836 124.962L387.138 126.183L389.24 126.965L389.24 127.023L387.138 127.806L383.836 129.023L383.836 130.144Z" fill="#19191A" fill-opacity="1.000000" transform="matrix(1 0 0 1 12.0215 12.0215)"/>
</svg>
